<svg width="18" height="17" viewBox="0 0 18 17" fill="none" xmlns="http://www.w3.org/2000/svg">
<g filter="url(#filter0_d)">
<path d="M16.6377 7.87727L9.84548 1.0886L9.39021 0.633327C9.28648 0.530278 9.14619 0.472443 8.99997 0.472443C8.85376 0.472443 8.71347 0.530278 8.60974 0.633327L1.36228 7.87727C1.25599 7.98315 1.17198 8.10925 1.11522 8.24813C1.05846 8.38701 1.0301 8.53585 1.03181 8.68587C1.03884 9.30462 1.55388 9.79856 2.17263 9.79856H2.9197V15.5238H15.0802V9.79856H15.8431C16.1437 9.79856 16.4267 9.68079 16.6394 9.46809C16.7442 9.3637 16.8271 9.23957 16.8836 9.10288C16.94 8.9662 16.9687 8.81968 16.9681 8.6718C16.9681 8.37298 16.8504 8.08997 16.6377 7.87727V7.87727ZM9.98435 14.2581H8.0156V10.6722H9.98435V14.2581ZM13.8146 8.53294V14.2581H11.1093V10.2503C11.1093 9.86184 10.7947 9.54719 10.4062 9.54719H7.59372C7.20525 9.54719 6.8906 9.86184 6.8906 10.2503V14.2581H4.18533V8.53294H2.49783L9.00173 2.0343L9.40779 2.44036L15.5039 8.53294H13.8146Z" fill="#8C8C8C"/>
</g>
<defs>
<filter id="filter0_d" x="-2.96826" y="0.472443" width="23.9364" height="23.0513" filterUnits="userSpaceOnUse" color-interpolation-filters="sRGB">
<feFlood flood-opacity="0" result="BackgroundImageFix"/>
<feColorMatrix in="SourceAlpha" type="matrix" values="0 0 0 0 0 0 0 0 0 0 0 0 0 0 0 0 0 0 127 0"/>
<feOffset dy="4"/>
<feGaussianBlur stdDeviation="2"/>
<feColorMatrix type="matrix" values="0 0 0 0 0 0 0 0 0 0 0 0 0 0 0 0 0 0 0.25 0"/>
<feBlend mode="normal" in2="BackgroundImageFix" result="effect1_dropShadow"/>
<feBlend mode="normal" in="SourceGraphic" in2="effect1_dropShadow" result="shape"/>
</filter>
</defs>
</svg>
